<?xml version="1.0" encoding="utf-8"?>
<!-- Generator: Adobe Illustrator 24.0.0, SVG Export Plug-In . SVG Version: 6.00 Build 0)  -->
<svg version="1.1" id="Layer_1" xmlns="http://www.w3.org/2000/svg" xmlns:xlink="http://www.w3.org/1999/xlink" x="0px" y="0px"
	 viewBox="0 0 453.74 113.74" style="enable-background:new 0 0 453.74 113.74;" xml:space="preserve">
<style type="text/css">
	.st0{fill:#262262;}
	.st1{fill:#8DC63F;}
	.st2{font-family:'ExocetOTCECY-Heavy';}
	.st3{font-size:58.0925px;}
	.st4{fill:#F15722;}
	.st5{font-family:'IBMPlexMono-Medium';}
	.st6{font-size:26.4742px;}
</style>
<path class="st0" d="M64.49,84.37c-5.38,0-10.45-2.1-14.25-5.9c-2.27-2.27-3.99-5.08-4.95-8.12c-2.3-7.22-0.4-15.03,4.95-20.39
	l1.03,1.03c-4.97,4.97-6.73,12.21-4.6,18.91c0.91,2.86,2.46,5.39,4.6,7.53c3.53,3.53,8.23,5.48,13.22,5.48c5,0,9.69-1.95,13.22-5.48
	c3.53-3.53,5.48-8.23,5.48-13.22c0-5-1.95-9.69-5.48-13.22l1.03-1.03c3.81,3.81,5.9,8.87,5.9,14.25c0,5.38-2.1,10.45-5.9,14.25
	C74.94,82.27,69.88,84.37,64.49,84.37z"/>
<path class="st0" d="M33.75,61.97c-7.86-7.86-7.86-20.65,0-28.51c3.81-3.81,8.87-5.9,14.25-5.9c5.38,0,10.45,2.1,14.25,5.9
	c7.29,7.28,7.92,18.83,1.48,26.85l-1.14-0.91c5.97-7.44,5.38-18.15-1.38-24.91c-3.53-3.53-8.23-5.48-13.22-5.48
	c-5,0-9.69,1.95-13.22,5.48c-7.29,7.29-7.29,19.16,0,26.45L33.75,61.97z"/>
<polygon class="st0" points="63.37,67.5 55.36,67.5 55.36,59.49 56.81,59.49 56.81,66.05 63.37,66.05 "/>
<polyline class="st1" points="66.81,61.28 61.58,61.28 61.58,56.06 "/>
<polygon class="st0" points="57.4,51.84 55.95,51.84 55.95,45.28 49.39,45.28 49.39,43.82 57.4,43.82 "/>
<polyline class="st1" points="47.23,49.27 51.96,49.27 51.96,53.99 "/>
<path class="st0" d="M78.19,51.5c-1.07-1.07-1.65-2.48-1.65-3.99c0-1.51,0.59-2.93,1.65-3.99c2.2-2.2,5.78-2.2,7.99,0
	c2.2,2.2,2.2,5.78,0,7.99l-1.03-1.03c1.63-1.63,1.63-4.29,0-5.92s-4.29-1.63-5.92,0c-0.79,0.79-1.23,1.84-1.23,2.96
	c0,1.12,0.44,2.17,1.23,2.96L78.19,51.5z"/>
<path class="st0" d="M30.79,70.54c-1.51,0-2.93-0.59-3.99-1.66c-2.2-2.2-2.2-5.78,0-7.99l1.03,1.03c-1.63,1.63-1.63,4.29,0,5.93
	c1.58,1.58,4.34,1.58,5.92,0c1.63-1.63,1.63-4.29,0-5.93l1.03-1.03c2.2,2.2,2.2,5.78,0,7.99C33.72,69.95,32.3,70.54,30.79,70.54z"/>
<path class="st0" d="M57.83,110.27L2.2,54.64L54.58,2.26l55.63,55.63L57.83,110.27z M4.55,54.64l53.28,53.28l50.04-50.03L54.58,4.6
	L4.55,54.64z"/>
<polygon class="st1" points="44.61,90.51 57.66,103.57 70.72,90.51 "/>
<polygon class="st1" points="67.81,22.02 54.75,8.96 41.7,22.02 "/>
<circle class="st1" cx="82.2" cy="47.46" r="3.1"/>
<circle class="st1" cx="30.75" cy="64.81" r="3.1"/>
<text transform="matrix(1 0 0 1 114.1357 55.8283)" class="st1 st2 st3">Jaxosoft</text>
<text transform="matrix(1 0 0 1 127.8679 91.0371)" class="st4 st5 st6">command-line-parser</text>
</svg>
