<?xml version="1.0" encoding="utf-8"?>
<!-- Generator: Adobe Illustrator 23.1.0, SVG Export Plug-In . SVG Version: 6.00 Build 0)  -->
<svg version="1.1" id="Layer_1" xmlns="http://www.w3.org/2000/svg" xmlns:xlink="http://www.w3.org/1999/xlink" x="0px" y="0px"
	 viewBox="0 0 455.65 124.35" style="enable-background:new 0 0 455.65 124.35;" xml:space="preserve">
<style type="text/css">
	.st0{fill:#262262;}
	.st1{fill:#8DC63F;}
	.st2{fill:#F15722;}
	.st3{font-family:'IBMPlexMono-Medium';}
	.st4{font-size:26.4742px;}
</style>
<path class="st0" d="M66.19,91.71c-5.38,0-10.45-2.1-14.25-5.9c-2.27-2.27-3.99-5.08-4.95-8.12c-2.3-7.22-0.4-15.03,4.95-20.39
	l1.03,1.03c-4.97,4.97-6.73,12.21-4.6,18.91c0.91,2.86,2.46,5.39,4.6,7.53c3.53,3.53,8.23,5.48,13.22,5.48c5,0,9.69-1.95,13.22-5.48
	s5.48-8.23,5.48-13.22c0-5-1.95-9.69-5.48-13.22l1.03-1.03c3.81,3.81,5.9,8.87,5.9,14.25c0,5.38-2.1,10.45-5.9,14.25
	C76.64,89.62,71.57,91.71,66.19,91.71z"/>
<path class="st0" d="M35.45,69.32c-7.86-7.86-7.86-20.65,0-28.51c3.81-3.81,8.87-5.9,14.25-5.9c5.38,0,10.45,2.1,14.25,5.9
	c7.29,7.28,7.92,18.83,1.48,26.85l-1.14-0.91c5.97-7.44,5.38-18.15-1.38-24.91c-3.53-3.53-8.23-5.48-13.22-5.48
	c-5,0-9.69,1.95-13.22,5.48c-7.29,7.29-7.29,19.16,0,26.45L35.45,69.32z"/>
<polygon class="st0" points="65.07,74.85 57.05,74.85 57.05,66.84 58.51,66.84 58.51,73.4 65.07,73.4 "/>
<polyline class="st1" points="68.5,68.63 63.28,68.63 63.28,63.4 "/>
<polygon class="st0" points="59.1,59.18 57.64,59.18 57.64,52.63 51.08,52.63 51.08,51.17 59.1,51.17 "/>
<polyline class="st1" points="48.93,56.61 53.65,56.61 53.65,61.34 "/>
<path class="st0" d="M79.89,58.85c-1.07-1.07-1.65-2.48-1.65-3.99c0-1.51,0.59-2.93,1.65-3.99c2.2-2.2,5.78-2.2,7.99,0
	s2.2,5.78,0,7.99l-1.03-1.03c1.63-1.63,1.63-4.29,0-5.92c-1.63-1.63-4.29-1.63-5.92,0c-0.79,0.79-1.23,1.84-1.23,2.96
	c0,1.12,0.44,2.17,1.23,2.96L79.89,58.85z"/>
<path class="st0" d="M32.49,77.89c-1.51,0-2.93-0.59-3.99-1.66c-2.2-2.2-2.2-5.78,0-7.99l1.03,1.03c-1.63,1.63-1.63,4.29,0,5.93
	c1.58,1.58,4.34,1.58,5.92,0c1.63-1.63,1.63-4.29,0-5.93l1.03-1.03c2.2,2.2,2.2,5.78,0,7.99C35.41,77.3,33.99,77.89,32.49,77.89z"/>
<path class="st0" d="M59.53,117.62L3.9,61.99L56.28,9.61l55.63,55.63L59.53,117.62z M6.24,61.99l53.28,53.28l50.04-50.03
	L56.28,11.95L6.24,61.99z"/>
<polygon class="st1" points="46.3,97.86 59.36,110.91 72.41,97.86 "/>
<polygon class="st1" points="69.51,29.37 56.45,16.31 43.39,29.37 "/>
<circle class="st1" cx="83.89" cy="54.81" r="3.1"/>
<circle class="st1" cx="32.44" cy="72.16" r="3.1"/>
<g>
	<path class="st1" d="M136.8,30.53c0,0-0.23,0-0.41,0c-1.63,0.17-2.21,0.52-2.21,2.79v29.97l-8.13,10.92v-40.9
		c0-2.27-0.58-2.61-2.21-2.79c-0.17,0-0.41,0-0.41,0l-0.29-1.39h0.46c0.93,0,2.09,0.12,2.79,0.12h7.44c0.7,0,1.86-0.12,2.79-0.12
		h0.46L136.8,30.53z"/>
	<path class="st1" d="M188.97,61.09c-0.76,0.41-1.92,0.81-2.5,1.16l-6.56,3.49c-0.58,0.35-1.51,0.99-2.38,1.45l-0.46,0.23
		l-0.35-1.39c0,0,0.23-0.12,0.35-0.17c1.39-0.93,1.63-1.57,0.64-3.54l-1.57-3.19h-15.74l-1.57,3.19c-0.99,1.92-0.75,2.61,0.58,3.54
		c0.17,0.06,0.41,0.17,0.41,0.17l-0.41,1.39l-0.46-0.23c-0.81-0.46-1.74-1.1-2.32-1.45l-6.56-3.49c-0.64-0.35-1.74-0.75-2.5-1.16
		l-0.46-0.23l0.93-1.1c0,0,0.23,0.12,0.35,0.23c1.51,0.52,2.21,0.52,3.25-1.51l16.61-31.19l16.67,31.19
		c1.04,2.03,1.68,2.03,3.25,1.51c0.12-0.12,0.35-0.23,0.35-0.23l0.93,1.1L188.97,61.09z M168.23,43.14l-4.3,8.77h8.66L168.23,43.14z
		"/>
	<path class="st1" d="M237.36,57.89c-0.64,0.64-1.57,1.39-2.09,1.86l-5.17,5.23c-0.52,0.46-1.22,1.39-1.86,2.03l-0.41,0.41
		l-0.7-1.22c0,0,0.12-0.17,0.23-0.35c1.04-1.22,1.16-1.86-0.46-3.49l-10.05-10.11l-10.17,10.11c-1.57,1.63-1.45,2.32-0.46,3.54
		c0.17,0.17,0.35,0.35,0.35,0.35l-0.81,1.22l-0.29-0.41c-0.7-0.64-1.39-1.57-1.92-2.09l-5.23-5.17c-0.46-0.52-1.39-1.22-2.09-1.86
		l-0.29-0.41l1.22-0.76c0,0,0.12,0.17,0.23,0.29c1.34,1.05,1.97,1.16,3.54-0.46L211.1,46.5L200.94,36.4
		c-1.57-1.63-2.21-1.45-3.54-0.46c-0.12,0.12-0.23,0.29-0.23,0.29l-1.22-0.75l0.29-0.35c0.7-0.64,1.63-1.39,2.09-1.86l5.23-5.29
		c0.52-0.46,1.22-1.39,1.92-2.03l0.29-0.35l0.81,1.22c0,0-0.17,0.17-0.35,0.23c-0.99,1.34-1.1,1.98,0.46,3.6l10.17,10.11
		l10.11-10.11c1.57-1.63,1.51-2.27,0.46-3.6c-0.12-0.06-0.29-0.23-0.29-0.23l0.75-1.22l0.35,0.35c0.7,0.64,1.39,1.57,1.92,2.03
		l5.17,5.29c0.52,0.46,1.45,1.22,2.09,1.86l0.35,0.35l-1.22,0.75c0,0-0.12-0.17-0.29-0.29c-1.28-0.99-1.92-1.16-3.54,0.46
		L222.6,46.5l10.11,10.05c1.57,1.63,2.27,1.51,3.49,0.46c0.17-0.12,0.35-0.23,0.35-0.23l1.22,0.7L237.36,57.89z"/>
	<path class="st1" d="M265.18,64.05c-9.82,0-17.83-7.96-17.83-17.83s8.02-17.83,17.83-17.83c9.88,0,17.83,7.96,17.83,17.83
		S275.06,64.05,265.18,64.05z M262.57,35.87c-3.78,0.93-6.8,3.95-7.73,7.73h7.73V35.87z M262.57,48.83h-7.73
		c0.99,3.78,3.95,6.8,7.73,7.73V48.83z M267.8,35.87v7.73h7.78C274.59,39.82,271.63,36.8,267.8,35.87z M267.8,48.83v7.73
		c3.83-0.93,6.85-3.95,7.78-7.73H267.8z"/>
	<path class="st1" d="M307.53,63.99c-4.12,0-7.61-1.28-9.99-4.18c0-1.68-0.06-6.62-0.06-8.31l1.45-0.06
		c1.16,3.78,4.3,5.58,7.61,5.58c2.21,0,3.83-1.22,3.83-2.85c0-1.74-0.99-2.79-3.25-4.01l-3.66-2.21c-4.18-2.5-5.81-5.34-5.81-9.47
		c0-5.17,3.49-9.88,10.86-9.88c3.43,0,5.81,0.87,7.49,2.15c0,2.21-0.06,4.42-0.06,7.32l-1.28,0.29c-0.7-2.03-2.61-3.54-5.29-3.54
		c-2.21,0-4.01,1.16-4.01,2.9c0,1.39,0.58,2.21,2.79,3.49l4.71,2.85c3.37,2.03,5.81,4.71,5.81,9.58
		C318.69,60.33,312.76,63.99,307.53,63.99z"/>
	<path class="st1" d="M349.19,64.05c-9.82,0-17.83-7.96-17.83-17.83s8.02-17.83,17.83-17.83c9.88,0,17.83,7.96,17.83,17.83
		S359.06,64.05,349.19,64.05z M346.57,35.87c-3.78,0.93-6.8,3.95-7.73,7.73h7.73V35.87z M346.57,48.83h-7.73
		c0.99,3.78,3.95,6.8,7.73,7.73V48.83z M351.8,35.87v7.73h7.78C358.6,39.82,355.63,36.8,351.8,35.87z M351.8,48.83v7.73
		c3.83-0.93,6.85-3.95,7.78-7.73H351.8z"/>
	<path class="st1" d="M404.02,51.85c0,0,0.06-0.23,0-0.41c-0.17-1.1-0.58-1.74-2.85-1.74h-8.95v11.27l-8.13,8.07V49.7
		c-2.09,0.06-2.5,0.58-2.67,2.21c0,0.17,0,0.41,0,0.41l-1.39,0.29v-0.46c0-0.93,0.12-2.09,0.12-2.79v-6.27
		c0-0.7-0.12-1.86-0.12-2.79v-0.52l1.39,0.29c0,0,0,0.23,0,0.46c0.17,1.57,0.58,2.09,2.67,2.15V29.25h17.08
		c2.26,0,2.67-0.58,2.85-2.21c0-0.17,0-0.41,0-0.41l1.39-0.29v0.46c0,0.93-0.17,2.09-0.17,2.79v6.74c0,0.52,0.12,1.28,0.12,2.03
		l-1.51-0.41c-0.29-0.93-0.93-1.22-2.67-1.22h-8.95v5.93h8.95c2.26,0,2.67-0.81,2.85-1.68c0.06-0.23,0-0.46,0-0.46l1.39-0.29v0.52
		c0,0.93-0.17,2.09-0.17,2.79v5.81c0,0.7,0.17,1.39,0.17,2.32v0.46L404.02,51.85z"/>
	<path class="st1" d="M450.15,52.84c0,0,0-0.23,0-0.41c-0.17-1.63-0.52-2.15-2.85-2.15h-8.83v8.83c0,2.27,0.58,2.61,2.21,2.79
		c0.17,0,0.41,0,0.41,0l0.35,1.39h-0.52c-0.93,0-2.09-0.12-2.79-0.12h-7.38c-0.7,0-1.86,0.12-2.79,0.12h-0.52l0.35-1.39
		c0,0,0.23,0,0.41,0c1.63-0.17,2.15-0.52,2.15-2.79v-8.83h-8.83c-2.27,0-2.61,0.52-2.79,2.15c0,0.17,0,0.41,0,0.41l-1.39,0.35v-0.52
		c0-0.93,0.12-2.09,0.12-2.79v-7.32c0-0.7-0.12-1.86-0.12-2.79v-0.52l1.39,0.35c0,0,0,0.23,0,0.41c0.17,1.63,0.52,2.15,2.79,2.15
		h8.83v-8.83c0-2.27-0.52-2.61-2.15-2.79c-0.17,0-0.41,0-0.41,0l-0.35-1.39h0.52c0.93,0,2.09,0.12,2.79,0.12h7.38
		c0.7,0,1.86-0.12,2.79-0.12h0.52l-0.35,1.39c0,0-0.23,0-0.41,0c-1.63,0.17-2.21,0.52-2.21,2.79v8.83h8.83
		c2.32,0,2.67-0.52,2.85-2.15c0-0.17,0-0.41,0-0.41l1.39-0.35v0.52c0,0.93-0.12,2.09-0.12,2.79v7.32c0,0.7,0.12,1.86,0.12,2.79v0.52
		L450.15,52.84z"/>
</g>
<text transform="matrix(1 0 0 1 129.5636 98.3849)" class="st2 st3 st4">command-line-parser</text>
</svg>
