<?xml version="1.0" encoding="utf-8"?>
<!-- Generator: Adobe Illustrator 23.1.0, SVG Export Plug-In . SVG Version: 6.00 Build 0)  -->
<svg version="1.1" id="Layer_1" xmlns="http://www.w3.org/2000/svg" xmlns:xlink="http://www.w3.org/1999/xlink" x="0px" y="0px"
	 viewBox="0 0 300 300" style="enable-background:new 0 0 300 300;" xml:space="preserve">
<style type="text/css">
	.st0{fill:#262262;}
	.st1{fill:#8DC63F;}
</style>
<path class="st0" d="M173.01,228.05c-14.95,0-29.02-5.82-39.59-16.4c-6.31-6.31-11.07-14.11-13.76-22.56
	c-6.39-20.05-1.11-41.75,13.76-56.62l2.86,2.86c-13.8,13.8-18.69,33.92-12.76,52.53c2.53,7.94,6.82,14.98,12.76,20.92
	c9.81,9.81,22.85,15.21,36.73,15.21c13.88,0,26.92-5.4,36.73-15.21c9.81-9.81,15.21-22.85,15.21-36.73
	c0-13.88-5.4-26.92-15.21-36.73l2.86-2.86c10.57,10.57,16.4,24.64,16.4,39.59c0,14.95-5.82,29.02-16.4,39.59
	C202.03,222.23,187.97,228.05,173.01,228.05z"/>
<path class="st0" d="M87.63,165.86c-21.83-21.83-21.83-57.35,0-79.18c10.57-10.57,24.63-16.4,39.59-16.4
	c14.95,0,29.02,5.82,39.59,16.4c20.23,20.23,22.01,52.3,4.12,74.58l-3.16-2.53c16.59-20.68,14.95-50.42-3.83-69.19
	c-9.81-9.81-22.85-15.21-36.73-15.21c-13.88,0-26.92,5.4-36.73,15.21c-20.25,20.25-20.25,53.2,0,73.46L87.63,165.86z"/>
<polygon class="st0" points="169.9,181.22 147.64,181.22 147.64,158.96 151.68,158.96 151.68,177.17 169.9,177.17 "/>
<polyline class="st1" points="179.44,163.93 164.92,163.93 164.92,149.42 "/>
<polygon class="st0" points="153.32,137.7 149.27,137.7 149.27,119.49 131.06,119.49 131.06,115.44 153.32,115.44 "/>
<polyline class="st1" points="125.08,130.56 138.19,130.56 138.19,143.68 "/>
<path class="st0" d="M211.05,136.76c-2.96-2.96-4.59-6.9-4.59-11.09c0-4.19,1.63-8.13,4.59-11.09c6.11-6.11,16.06-6.11,22.18,0
	c6.11,6.11,6.11,16.06,0,22.18l-2.86-2.86c4.54-4.54,4.54-11.92,0-16.46c-4.54-4.54-11.92-4.54-16.46,0
	c-2.2,2.2-3.41,5.12-3.41,8.23c0,3.11,1.21,6.03,3.41,8.23L211.05,136.76z"/>
<path class="st0" d="M79.41,189.66c-4.19,0-8.13-1.63-11.09-4.6c-6.11-6.11-6.11-16.07,0-22.18l2.86,2.86
	c-4.54,4.54-4.54,11.92,0,16.46c4.39,4.4,12.06,4.4,16.46,0c4.54-4.54,4.54-11.92,0-16.46l2.86-2.86c6.11,6.11,6.11,16.07,0,22.18
	C87.53,188.02,83.59,189.66,79.41,189.66z"/>
<path class="st0" d="M154.51,300L0,145.49L145.49,0L300,154.51L154.51,300z M6.52,145.49l147.99,148l138.97-138.97l-148-148
	L6.52,145.49z"/>
<polygon class="st1" points="117.78,245.11 154.04,281.38 190.3,245.11 "/>
<polygon class="st1" points="182.22,54.89 145.96,18.62 109.69,54.89 "/>
<circle class="st1" cx="222.18" cy="125.55" r="8.6"/>
<circle class="st1" cx="79.29" cy="173.73" r="8.6"/>
</svg>
